<svg xmlns="http://www.w3.org/2000/svg" version="1.1" xmlns:xlink="http://www.w3.org/1999/xlink" xmlns:svgjs="http://svgjs.dev/svgjs" width="1000" height="1000" viewBox="0 0 1000 1000"><rect width="1000" height="1000" fill="#ffffff"></rect><g transform="matrix(0.7,0,0,0.7,149.5757575757575,394.78836763293975)"><svg viewBox="0 0 396 119" data-background-color="#ffffff" preserveAspectRatio="xMidYMid meet" height="300" width="1000" xmlns="http://www.w3.org/2000/svg" xmlns:xlink="http://www.w3.org/1999/xlink"><g id="tight-bounds" transform="matrix(1,0,0,1,0.24000000000003752,0.11992500800079142)"><svg viewBox="0 0 395.5199999999999 118.7601499839984" height="118.7601499839984" width="395.5199999999999"><g><svg viewBox="0 0 577.1286827986529 173.29057678305892" height="118.7601499839984" width="395.5199999999999"><g transform="matrix(1,0,0,1,0,23.9497106841999)"><svg viewBox="0 0 395.52 125.39115541465912" height="125.39115541465912" width="395.52"><g><svg viewBox="0 0 395.52 125.39115541465912" height="125.39115541465912" width="395.52"><g><svg viewBox="0 0 395.52 80.39104881101377" height="80.39104881101377" width="395.52"><g transform="matrix(1,0,0,1,0,0)"><svg width="395.52" viewBox="0.25 -39.85 199.73 40.6" height="80.39104881101377" data-palette-color="#001f3f"><path d="M16.75-5.35L19-1.25Q17.6-0.25 15.88 0.25 14.15 0.75 12.35 0.75L12.35 0.75Q8.45 0.7 6.43-1.48 4.4-3.65 4.4-7.9L4.4-7.9 4.4-21.85 0.25-21.85 0.25-26.45 4.4-26.45 4.4-32.3 10.8-33.05 10.8-26.45 16.95-26.45 16.3-21.85 10.8-21.85 10.8-8.05Q10.8-6.1 11.48-5.25 12.15-4.4 13.6-4.4L13.6-4.4Q15.05-4.4 16.75-5.35L16.75-5.35ZM33.4-27.2Q39.25-27.2 42.52-23.48 45.8-19.75 45.8-13.25L45.8-13.25Q45.8-9.1 44.3-5.93 42.8-2.75 40-1 37.2 0.75 33.35 0.75L33.35 0.75Q27.5 0.75 24.2-2.98 20.9-6.7 20.9-13.25L20.9-13.25Q20.9-17.4 22.4-20.55 23.9-23.7 26.72-25.45 29.55-27.2 33.4-27.2L33.4-27.2ZM33.4-22.35Q27.65-22.35 27.65-13.25L27.65-13.25Q27.65-8.55 29.07-6.33 30.5-4.1 33.35-4.1L33.35-4.1Q36.2-4.1 37.62-6.35 39.05-8.6 39.05-13.25L39.05-13.25Q39.05-17.9 37.62-20.13 36.2-22.35 33.4-22.35L33.4-22.35ZM71.9-26.45L64.25-14.15 73.1 0 65.7 0 60.25-10.5 54.85 0 47.8 0 56.6-13.95 48.7-26.45 56-26.45 60.5-17.45 64.95-26.45 71.9-26.45ZM76.79-26.45L83.19-26.45 83.19 0 76.79 0 76.79-26.45ZM79.94-39.85Q81.74-39.85 82.87-38.73 83.99-37.6 83.99-35.95L83.99-35.95Q83.99-34.3 82.87-33.2 81.74-32.1 79.94-32.1L79.94-32.1Q78.19-32.1 77.07-33.2 75.94-34.3 75.94-35.95L75.94-35.95Q75.94-37.6 77.07-38.73 78.19-39.85 79.94-39.85L79.94-39.85ZM111.74-27.2Q117.09-27.2 121.14-24.05L121.14-24.05 118.64-20.3Q115.24-22.45 111.99-22.45L111.99-22.45Q110.09-22.45 109.04-21.73 107.99-21 107.99-19.8L107.99-19.8Q107.99-18.9 108.44-18.3 108.89-17.7 110.06-17.18 111.24-16.65 113.54-16L113.54-16Q117.84-14.85 119.91-12.95 121.99-11.05 121.99-7.65L121.99-7.65Q121.99-3.7 118.79-1.48 115.59 0.75 110.84 0.75L110.84 0.75Q107.59 0.75 104.91-0.25 102.24-1.25 100.29-3L100.29-3 103.49-6.6Q106.94-4 110.69-4L110.69-4Q112.84-4 114.11-4.85 115.39-5.7 115.39-7.2L115.39-7.2Q115.39-8.35 114.91-9.03 114.44-9.7 113.21-10.23 111.99-10.75 109.39-11.5L109.39-11.5Q105.34-12.6 103.44-14.58 101.54-16.55 101.54-19.5L101.54-19.5Q101.54-21.7 102.81-23.45 104.09-25.2 106.41-26.2 108.74-27.2 111.74-27.2L111.74-27.2ZM137.84-27.2Q140.44-27.2 142.51-26.45 144.59-25.7 146.44-24.1L146.44-24.1 143.59-20.25Q142.24-21.25 140.99-21.7 139.74-22.15 138.24-22.15L138.24-22.15Q132.29-22.15 132.29-13.1L132.29-13.1Q132.29-8.5 133.84-6.48 135.39-4.45 138.24-4.45L138.24-4.45Q139.64-4.45 140.81-4.9 141.99-5.35 143.59-6.35L143.59-6.35 146.44-2.3Q142.69 0.75 137.89 0.75L137.89 0.75Q134.09 0.75 131.29-0.93 128.49-2.6 126.99-5.7 125.49-8.8 125.49-13L125.49-13Q125.49-17.2 126.99-20.43 128.49-23.65 131.29-25.43 134.09-27.2 137.84-27.2L137.84-27.2ZM170.63-7Q170.63-5.45 171.11-4.73 171.58-4 172.63-3.6L172.63-3.6 171.28 0.65Q169.03 0.45 167.61-0.45 166.18-1.35 165.43-3.2L165.43-3.2Q164.08-1.2 162.06-0.23 160.03 0.75 157.53 0.75L157.53 0.75Q153.58 0.75 151.28-1.5 148.98-3.75 148.98-7.4L148.98-7.4Q148.98-11.7 152.11-13.98 155.23-16.25 161.03-16.25L161.03-16.25 164.33-16.25 164.33-17.75Q164.33-20.3 163.16-21.33 161.98-22.35 159.38-22.35L159.38-22.35Q156.48-22.35 152.38-20.95L152.38-20.95 150.88-25.3Q155.83-27.2 160.48-27.2L160.48-27.2Q170.63-27.2 170.63-18.1L170.63-18.1 170.63-7ZM159.23-3.9Q162.48-3.9 164.33-7.15L164.33-7.15 164.33-12.5 161.68-12.5Q155.48-12.5 155.48-7.9L155.48-7.9Q155.48-6 156.43-4.95 157.38-3.9 159.23-3.9L159.23-3.9ZM192.48-27.2Q196.03-27.2 198.01-25.08 199.98-22.95 199.98-19.15L199.98-19.15 199.98 0 193.58 0 193.58-18.15Q193.58-20.5 192.76-21.45 191.93-22.4 190.33-22.4L190.33-22.4Q188.68-22.4 187.36-21.38 186.03-20.35 184.78-18.4L184.78-18.4 184.78 0 178.38 0 178.38-26.45 183.93-26.45 184.43-23Q187.68-27.2 192.48-27.2L192.48-27.2Z" opacity="1" transform="matrix(1,0,0,1,0,0)" fill="#000000" class="undefined-text-0" data-fill-palette-color="primary" id="text-0"></path></svg></g></svg></g><g transform="matrix(1,0,0,1,163.310208,99.36944605012266)"><svg viewBox="0 0 232.209792 26.021709364536452" height="26.021709364536452" width="232.209792"><g transform="matrix(1,0,0,1,0,0)"><svg width="232.209792" viewBox="0.1 -38.1 444.34999999999997 49.800000000000004" height="26.021709364536452" data-palette-color="#383030"><path d="M23.8 0.5L23.8 0.5 22.9 0.7 17.9-13.9 14-2.5Q13.5-2.35 12.45-1.05 11.4 0.25 11.4 0.5L11.4 0.5 10.5 0.7 3.4-19.6Q2.95-20.75 2.43-21.28 1.9-21.8 0.8-21.8L0.8-21.8 0.1-21.8 0.1-23.3 9.5-23.3 9.4-21.8Q7.4-21.8 7.4-20.6L7.4-20.6Q7.4-20.2 7.8-19L7.8-19 12.6-5.4 16.7-17.3 15.8-19.6Q14.95-21.8 13.6-21.8L13.6-21.8 13.6-23.3 22.5-23.3 22.5-21.8 22.1-21.8Q19.9-21.8 19.9-20.6L19.9-20.6Q19.9-20.4 20.2-19.5L20.2-19.5 25-5.4 29.9-19.7Q30.3-20.65 30.3-21.08 30.3-21.5 29.78-21.65 29.25-21.8 27.4-21.8L27.4-21.8 26.8-21.8 26.8-23.3 36.2-23.3 36.2-21.8 35.7-21.8Q34.05-21.8 33.4-21.3 32.75-20.8 32.3-19.4L32.3-19.4 26.5-2.5Q26.05-2.5 24.93-1.13 23.8 0.25 23.8 0.5ZM56.85-6.1L56.85-6.1 57.75-5.2Q54.55 0.7 46.25 0.7L46.25 0.7Q42.4 0.7 39.67-2.7 36.95-6.1 36.95-10.3L36.95-10.3Q36.95-15.95 40.62-19.98 44.3-24 49.55-24L49.55-24Q52.05-24 53.95-22.55L53.95-22.55Q57.35-19.9 57.35-15.7L57.35-15.7Q57.35-15.1 57.12-14.25 56.9-13.4 56.75-13.4L56.75-13.4 40.65-12.9Q40.65-9 43.1-5.7 45.55-2.4 49.05-2.4L49.05-2.4Q51.55-2.4 53.67-3.43 55.8-4.45 56.85-6.1ZM41.15-14.9L41.15-14.9 52.85-15.4Q52.95-15.4 52.95-16.3L52.95-16.3Q52.95-18.9 51.42-20 49.9-21.1 47.22-21.1 44.55-21.1 42.85-19.45 41.15-17.8 41.15-14.9ZM84.24 10.2L84.24 11.7 74.14 11.7 74.14 10.2 74.74 10.2Q75.84 10.2 76.37 9.85 76.89 9.5 76.97 9.15 77.04 8.8 77.04 8L77.04 8 77.04-17.9Q77.04-20.2 74.14-20.2L74.14-20.2 74.14-21.5Q75.09-21.5 77.14-22.28 79.19-23.05 80.14-23.7L80.14-23.7 81.04-23.8 81.04-17.5Q82.09-20.35 84.44-22.18 86.79-24 90.24-24 93.69-24 95.72-21.75 97.74-19.5 97.74-15.7L97.74-15.7Q97.74-8.65 94.04-3.98 90.34 0.7 85.04 0.7L85.04 0.7Q83.19 0.7 81.04-0.3L81.04-0.3 81.04 8.2Q81.04 8.9 81.14 9.25L81.14 9.25Q81.39 10.2 83.24 10.2L83.24 10.2 84.24 10.2ZM81.04-13.4L81.04-13.4 81.04-4.5Q81.24-4.2 81.64-3.7 82.04-3.2 83.32-2.4 84.59-1.6 85.94-1.6L85.94-1.6Q89.59-1.6 92.02-5.05 94.44-8.5 94.44-13.8L94.44-13.8Q94.44-16.75 92.62-18.68 90.79-20.6 88.07-20.6 85.34-20.6 83.19-17.57 81.04-14.55 81.04-13.4ZM112.39-1.4L112.39 0 101.59 0 101.59-1.4 102.39-1.4Q103.74-1.4 104.12-1.85 104.49-2.3 104.49-3.3L104.49-3.3 104.49-18.3Q104.49-19.25 103.87-19.68 103.24-20.1 101.59-20.1L101.59-20.1 101.59-21.5Q102.59-21.5 104.62-22.23 106.64-22.95 107.69-23.6L107.69-23.6 108.59-23.8 108.59-17.6Q110.39-21.55 112.69-22.83 114.99-24.1 119.49-24.1L119.49-24.1 119.19-18.3 117.69-18.3Q117.69-19 117.17-19.65 116.64-20.3 115.49-20.3L115.49-20.3Q112.99-20.3 110.79-17.6 108.59-14.9 108.59-12.4L108.59-12.4 108.59-3.6Q108.59-2.8 108.67-2.45 108.74-2.1 109.24-1.75 109.74-1.4 110.79-1.4L110.79-1.4 112.39-1.4ZM131.29 0.7L131.29 0.7Q126.89 0.7 123.94-2.6 120.99-5.9 120.99-10.3L120.99-10.3Q120.99-15.9 125.21-19.95 129.44-24 134.14-24 138.84-24 141.71-20.68 144.59-17.35 144.59-13L144.59-13Q144.59-7.55 140.56-3.43 136.54 0.7 131.29 0.7ZM124.49-13Q124.49-8.35 127.31-5.28 130.14-2.2 133.66-2.2 137.19-2.2 139.19-4.85 141.19-7.5 141.19-10.3L141.19-10.3Q141.19-14.55 138.56-17.73 135.94-20.9 132.19-20.9 128.44-20.9 126.46-18.38 124.49-15.85 124.49-13L124.49-13ZM156.79 0.5L155.99 0.7 148.39-19.6Q147.94-20.75 147.41-21.28 146.89-21.8 145.79-21.8L145.79-21.8 145.09-21.8 145.09-23.3 154.39-23.3 154.29-21.8 153.79-21.8Q152.29-21.8 152.29-20.9L152.29-20.9Q152.29-20.3 152.39-20.1L152.39-20.1 157.99-5.4 163.69-19.8Q164.09-20.6 164.09-21.05 164.09-21.5 163.56-21.65 163.04-21.8 161.19-21.8L161.19-21.8 160.59-21.8 160.59-23.3 169.99-23.3 169.99-21.8 169.59-21.8Q167.99-21.8 167.31-21.3 166.64-20.8 166.09-19.4L166.09-19.4 159.49-2.5Q159.09-2.5 157.94-1.18 156.79 0.15 156.79 0.5L156.79 0.5ZM176.91-34.8Q178.03-34.8 178.66-34.05 179.28-33.3 179.28-32.13 179.28-30.95 178.33-30.18 177.38-29.4 176.26-29.4 175.13-29.4 174.51-30.15 173.88-30.9 173.88-32.02 173.88-33.15 174.83-33.98 175.78-34.8 176.91-34.8ZM182.38-1.4L182.38 0 172.28 0 172.28-1.4 173.08-1.4Q174.43-1.4 174.81-1.85 175.18-2.3 175.18-3.3L175.18-3.3 175.18-18.3Q175.18-19.25 174.56-19.68 173.93-20.1 172.28-20.1L172.28-20.1 172.28-21.5Q173.28-21.5 175.31-22.23 177.33-22.95 178.38-23.6L178.38-23.6 179.28-23.8 179.28-3.6Q179.28-2.8 179.36-2.45 179.43-2.1 179.93-1.75 180.43-1.4 181.48-1.4L181.48-1.4 182.38-1.4ZM209.48-1.6L209.48 0 202.28 0 202.28-5.8Q201.23-2.95 198.88-1.13 196.53 0.7 193.06 0.7 189.58 0.7 187.58-1.55 185.58-3.8 185.58-7.6L185.58-7.6Q185.58-14.65 189.25-19.33 192.93-24 198.28-24L198.28-24Q199.48-24 202.28-23L202.28-23 202.28-33Q202.28-33.95 201.63-34.38 200.98-34.8 199.38-34.8L199.38-34.8 199.38-36.2Q200.43-36.2 202.48-36.75 204.53-37.3 205.38-37.9L205.38-37.9 206.28-38.1 206.28-3.4Q206.28-2.45 206.66-2.02 207.03-1.6 208.48-1.6L208.48-1.6 209.48-1.6ZM202.28-9.9L202.28-9.9 202.28-18.8Q202.08-19.1 201.68-19.6 201.28-20.1 200-20.9 198.73-21.7 197.38-21.7L197.38-21.7Q193.73-21.7 191.31-18.25 188.88-14.8 188.88-9.5L188.88-9.5Q188.88-6.55 190.66-4.63 192.43-2.7 195.21-2.7 197.98-2.7 200.13-5.73 202.28-8.75 202.28-9.9ZM232.78-6.1L232.78-6.1 233.68-5.2Q230.48 0.7 222.18 0.7L222.18 0.7Q218.33 0.7 215.6-2.7 212.88-6.1 212.88-10.3L212.88-10.3Q212.88-15.95 216.55-19.98 220.23-24 225.48-24L225.48-24Q227.98-24 229.88-22.55L229.88-22.55Q233.28-19.9 233.28-15.7L233.28-15.7Q233.28-15.1 233.05-14.25 232.83-13.4 232.68-13.4L232.68-13.4 216.58-12.9Q216.58-9 219.03-5.7 221.48-2.4 224.98-2.4L224.98-2.4Q227.48-2.4 229.6-3.43 231.73-4.45 232.78-6.1ZM217.08-14.9L217.08-14.9 228.78-15.4Q228.88-15.4 228.88-16.3L228.88-16.3Q228.88-18.9 227.35-20 225.83-21.1 223.15-21.1 220.48-21.1 218.78-19.45 217.08-17.8 217.08-14.9ZM250.27-1.4L250.27-1.4 250.77-6.8 252.17-6.7Q252.17-5 254.37-3.45 256.57-1.9 259.12-1.9L259.12-1.9Q264.37-1.9 264.37-5.1L264.37-5.1Q264.37-6.7 263.02-7.95 261.67-9.2 259.77-10.03 257.87-10.85 255.97-11.73 254.07-12.6 252.72-14.03 251.37-15.45 251.37-17.3L251.37-17.3Q251.37-23.8 260.97-23.8L260.97-23.8Q263.12-23.8 265.67-22.6L265.67-22.6 265.37-17.6 264.17-17.6Q264.17-19 262.55-20.3 260.92-21.6 259.02-21.6 257.12-21.6 255.8-20.85 254.47-20.1 254.47-18.63 254.47-17.15 255.82-16.2 257.17-15.25 259.07-14.65 260.97-14.05 262.87-13.3 264.77-12.55 266.12-10.85 267.47-9.15 267.47-6.6 267.47-4.05 265.82-2.35L265.82-2.35Q262.87 0.7 257.27 0.7L257.27 0.7Q252.92 0.7 250.27-1.4ZM281.27 0.7L281.27 0.7Q276.87 0.7 273.92-2.6 270.97-5.9 270.97-10.3L270.97-10.3Q270.97-15.9 275.19-19.95 279.42-24 284.12-24 288.82-24 291.69-20.68 294.57-17.35 294.57-13L294.57-13Q294.57-7.55 290.55-3.43 286.52 0.7 281.27 0.7ZM274.47-13Q274.47-8.35 277.3-5.28 280.12-2.2 283.64-2.2 287.17-2.2 289.17-4.85 291.17-7.5 291.17-10.3L291.17-10.3Q291.17-14.55 288.55-17.73 285.92-20.9 282.17-20.9 278.42-20.9 276.44-18.38 274.47-15.85 274.47-13L274.47-13ZM307.87-1.4L307.87 0 297.87 0 297.87-1.4 298.57-1.4Q299.67-1.4 300.17-1.88 300.67-2.35 300.67-3.5L300.67-3.5 300.67-33Q300.67-33.95 300.02-34.38 299.37-34.8 297.77-34.8L297.77-34.8 297.77-36.2Q298.77-36.2 300.84-36.75 302.92-37.3 303.87-37.9L303.87-37.9 304.77-38.1 304.77-3.6Q304.77-2.8 304.84-2.45 304.92-2.1 305.42-1.75 305.92-1.4 306.97-1.4L306.97-1.4 307.87-1.4ZM336.66-1.4L336.66 0 329.46 0 329.46-5.9Q328.31-2.75 325.91-1.03 323.51 0.7 320.06 0.7L320.06 0.7Q318.26 0.7 317.01-0.1 315.76-0.9 315.21-2.15L315.21-2.15Q314.26-4.3 314.26-6.4L314.26-6.4 314.26-18.3Q314.26-20.6 311.36-20.6L311.36-20.6 311.36-22Q312.36-22 314.39-22.55 316.41-23.1 317.36-23.7L317.36-23.7 318.26-23.8 318.26-7.3Q318.26-5.05 319.34-3.88 320.41-2.7 322.36-2.7L322.36-2.7Q325.16-2.7 327.31-5.7 329.46-8.7 329.46-10.2L329.46-10.2 329.46-18.3Q329.46-20.6 326.56-20.6L326.56-20.6 326.56-22Q327.66-22 329.69-22.55 331.71-23.1 332.66-23.7L332.66-23.7 333.56-23.8 333.56-3.4Q333.56-2.7 333.66-2.35L333.66-2.35Q333.91-1.4 335.76-1.4L335.76-1.4 336.66-1.4ZM354.66-3.1L354.66-3.1 355.06-1.9Q351.31 0.7 346.86 0.7L346.86 0.7Q345.26 0.7 344.11-0.45 342.96-1.6 342.96-3.5L342.96-3.5 342.96-21.2 340.06-21.2 340.06-23.3 341.16-23.3Q342.81-23.3 344.24-25.3 345.66-27.3 345.66-29L345.66-29 346.96-29 346.96-23.3 353.76-23.3 353.76-21.2 348.86-21.2Q346.96-21.2 346.96-19.4L346.96-19.4 346.96-5.1Q346.96-1.8 349.36-1.8L349.36-1.8Q352.06-1.8 354.66-3.1ZM362.08-34.8Q363.21-34.8 363.83-34.05 364.46-33.3 364.46-32.13 364.46-30.95 363.51-30.18 362.56-29.4 361.43-29.4 360.31-29.4 359.68-30.15 359.06-30.9 359.06-32.02 359.06-33.15 360.01-33.98 360.96-34.8 362.08-34.8ZM367.56-1.4L367.56 0 357.46 0 357.46-1.4 358.26-1.4Q359.61-1.4 359.98-1.85 360.36-2.3 360.36-3.3L360.36-3.3 360.36-18.3Q360.36-19.25 359.73-19.68 359.11-20.1 357.46-20.1L357.46-20.1 357.46-21.5Q358.46-21.5 360.48-22.23 362.51-22.95 363.56-23.6L363.56-23.6 364.46-23.8 364.46-3.6Q364.46-2.8 364.53-2.45 364.61-2.1 365.11-1.75 365.61-1.4 366.66-1.4L366.66-1.4 367.56-1.4ZM381.06 0.7L381.06 0.7Q376.66 0.7 373.71-2.6 370.76-5.9 370.76-10.3L370.76-10.3Q370.76-15.9 374.98-19.95 379.21-24 383.91-24 388.61-24 391.48-20.68 394.36-17.35 394.36-13L394.36-13Q394.36-7.55 390.33-3.43 386.31 0.7 381.06 0.7ZM374.26-13Q374.26-8.35 377.08-5.28 379.91-2.2 383.43-2.2 386.96-2.2 388.96-4.85 390.96-7.5 390.96-10.3L390.96-10.3Q390.96-14.55 388.33-17.73 385.71-20.9 381.96-20.9 378.21-20.9 376.23-18.38 374.26-15.85 374.26-13L374.26-13ZM423.25-1.4L423.25 0 414.65 0 414.65-1.4 414.85-1.4Q415.4-1.4 415.78-1.95 416.15-2.5 416.15-3.3L416.15-3.3 416.15-16Q416.15-18.25 415.08-19.43 414-20.6 412.05-20.6L412.05-20.6Q409.25-20.6 407.1-17.6 404.95-14.6 404.95-13.1L404.95-13.1 404.95-3.6Q404.95-2.8 405.03-2.45 405.1-2.1 405.6-1.75 406.1-1.4 407.15-1.4L407.15-1.4 408.05-1.4 408.05 0 397.95 0 397.95-1.4 398.75-1.4Q400.1-1.4 400.48-1.85 400.85-2.3 400.85-3.3L400.85-3.3 400.85-18.3Q400.85-19.25 400.23-19.68 399.6-20.1 397.95-20.1L397.95-20.1 397.95-21.5Q398.95-21.5 400.98-22.23 403-22.95 404.05-23.6L404.05-23.6 404.95-23.8 404.95-17.4Q406.1-20.55 408.5-22.28 410.9-24 414.35-24L414.35-24Q416.15-24 417.4-23.2 418.65-22.4 419.2-21.15L419.2-21.15Q420.15-19 420.15-16.9L420.15-16.9 420.15-3.4Q420.15-2.7 420.25-2.35L420.25-2.35Q420.5-1.4 422.35-1.4L422.35-1.4 423.25-1.4ZM427.25-1.4L427.25-1.4 427.75-6.8 429.15-6.7Q429.15-5 431.35-3.45 433.55-1.9 436.1-1.9L436.1-1.9Q441.35-1.9 441.35-5.1L441.35-5.1Q441.35-6.7 440-7.95 438.65-9.2 436.75-10.03 434.85-10.85 432.95-11.73 431.05-12.6 429.7-14.03 428.35-15.45 428.35-17.3L428.35-17.3Q428.35-23.8 437.95-23.8L437.95-23.8Q440.1-23.8 442.65-22.6L442.65-22.6 442.35-17.6 441.15-17.6Q441.15-19 439.53-20.3 437.9-21.6 436-21.6 434.1-21.6 432.78-20.85 431.45-20.1 431.45-18.63 431.45-17.15 432.8-16.2 434.15-15.25 436.05-14.65 437.95-14.05 439.85-13.3 441.75-12.55 443.1-10.85 444.45-9.15 444.45-6.6 444.45-4.05 442.8-2.35L442.8-2.35Q439.85 0.7 434.25 0.7L434.25 0.7Q429.9 0.7 427.25-1.4Z" opacity="1" transform="matrix(1,0,0,1,0,0)" fill="#000000" class="undefined-text-1" data-fill-palette-color="secondary" id="text-1"></path></svg></g></svg></g></svg></g></svg></g><g transform="matrix(1,0,0,1,414.4983972391089,0)"><svg viewBox="0 0 162.63028555954403 173.29057678305892" height="173.29057678305892" width="162.63028555954403"><g><svg xmlns="http://www.w3.org/2000/svg" xmlns:xlink="http://www.w3.org/1999/xlink" version="1.1" x="0" y="0" viewBox="10.308290794406634 5 84.26170920559336 89.785" style="enable-background:new 0 0 100 100;" xml:space="preserve" height="173.29057678305892" width="162.63028555954403" class="icon-icon-0" data-fill-palette-color="accent" id="icon-0"><path d="M63.135 12.218l-1.643 4.723c10.021 3.483 18.084 11.546 21.567 21.567l4.723-1.643C83.801 25.413 74.587 16.199 63.135 12.218z" fill="#000000" data-fill-palette-color="accent"></path><path d="M50 20c4.136 0 7.5-3.364 7.5-7.5S54.136 5 50 5s-7.5 3.364-7.5 7.5S45.864 20 50 20zM50 10c1.379 0 2.5 1.121 2.5 2.5S51.379 15 50 15s-2.5-1.121-2.5-2.5S48.621 10 50 10z" fill="#000000" data-fill-palette-color="accent"></path><path d="M72.5 50c0-12.406-10.094-22.5-22.5-22.5S27.5 37.594 27.5 50 37.594 72.5 50 72.5 72.5 62.406 72.5 50zM50 67.5c-9.649 0-17.5-7.851-17.5-17.5S40.351 32.5 50 32.5 67.5 40.351 67.5 50 59.649 67.5 50 67.5z" fill="#000000" data-fill-palette-color="accent"></path><polygon points="52.5,47.5 52.5,37.5 47.5,37.5 47.5,52.5 57.5,52.5 57.5,47.5 " fill="#000000" data-fill-palette-color="accent"></polygon><polygon points="91.035,42.93 87.5,46.465 83.965,42.93 80.43,46.465 83.965,50 80.43,53.535 83.965,57.07 87.5,53.535   91.035,57.07 94.57,53.535 91.035,50 94.57,46.465 " fill="#000000" data-fill-palette-color="accent"></polygon><path d="M33.53 13.74c-0.461 0.46-0.73 1.109-0.73 1.77 0 0.65 0.27 1.3 0.73 1.76 0.47 0.471 1.119 0.74 1.77 0.74 0.66 0 1.3-0.27 1.77-0.74 0.461-0.46 0.73-1.1 0.73-1.76s-0.27-1.31-0.73-1.77C36.14 12.81 34.47 12.81 33.53 13.74z" fill="#000000" data-fill-palette-color="accent"></path><path d="M21.64 25.35c-1.1-0.83-2.67-0.62-3.51 0.48h0.01c-0.84 1.1-0.63 2.67 0.47 3.5 0.45 0.35 0.99 0.51 1.511 0.51 0.76 0 1.5-0.34 1.989-0.98C22.95 27.76 22.74 26.189 21.64 25.35z" fill="#000000" data-fill-palette-color="accent"></path><path d="M25.38 81.53c0.46 0.35 1 0.529 1.54 0.529 0.74 0 1.479-0.33 1.97-0.96 0.851-1.09 0.66-2.66-0.43-3.51s-2.66-0.66-3.51 0.43C24.1 79.1 24.29 80.68 25.38 81.53z" fill="#000000" data-fill-palette-color="accent"></path><path d="M22.1 71.13c-0.83-1.1-2.399-1.311-3.5-0.47-1.1 0.83-1.319 2.399-0.479 3.5 0.489 0.649 1.239 0.989 1.989 0.989 0.53 0 1.061-0.17 1.511-0.51 1.1-0.84 1.319-2.399 0.479-3.5C22.1 71.13 22.1 71.13 22.1 71.13z" fill="#000000" data-fill-palette-color="accent"></path><path d="M12.49 47.62c0.109 0.01 0.22 0.02 0.319 0.02 1.24 0 2.32-0.92 2.48-2.18 0.18-1.37-0.79-2.62-2.16-2.8-1.37-0.181-2.62 0.79-2.8 2.159C10.16 46.189 11.12 47.439 12.49 47.62z" fill="#000000" data-fill-palette-color="accent"></path><path d="M10.33 55.16c0.16 1.26 1.239 2.18 2.479 2.18 0.101 0 0.21 0 0.32-0.021 1.37-0.17 2.33-1.43 2.16-2.8-0.181-1.37-1.431-2.33-2.8-2.16C11.12 52.54 10.149 53.79 10.33 55.16z" fill="#000000" data-fill-palette-color="accent"></path><path d="M16.25 33.45c-1.28-0.53-2.74 0.08-3.26 1.359-0.521 1.28 0.079 2.74 1.359 3.26 0.311 0.131 0.63 0.19 0.95 0.19 0.98 0 1.92-0.58 2.31-1.55C18.14 35.439 17.53 33.97 16.25 33.45z" fill="#000000" data-fill-palette-color="accent"></path><path d="M15.3 66.72c0.31 0 0.63-0.06 0.94-0.18 1.279-0.53 1.89-1.99 1.359-3.271-0.52-1.27-1.979-1.88-3.26-1.359-1.271 0.52-1.88 1.979-1.36 3.26C13.38 66.14 14.31 66.72 15.3 66.72z" fill="#000000" data-fill-palette-color="accent"></path><path d="M24.97 21.979c0.5 0.63 1.23 0.96 1.98 0.96 0.529 0 1.08-0.17 1.529-0.529 1.09-0.851 1.28-2.42 0.44-3.511-0.851-1.09-2.42-1.279-3.51-0.43C24.319 19.319 24.12 20.89 24.97 21.979z" fill="#000000" data-fill-palette-color="accent"></path><path d="M33.53 82.74c-0.461 0.46-0.73 1.109-0.73 1.77s0.27 1.3 0.73 1.76c0.47 0.471 1.109 0.74 1.77 0.74s1.3-0.27 1.77-0.74c0.461-0.46 0.73-1.1 0.73-1.76s-0.27-1.31-0.73-1.77C36.14 81.81 34.46 81.81 33.53 82.74z" fill="#000000" data-fill-palette-color="accent"></path><path d="M83.06 61.492C79.576 71.514 71.514 79.576 61.492 83.06l1.643 4.723c11.452-3.981 20.666-13.195 24.647-24.647L83.06 61.492z" fill="#000000" data-fill-palette-color="accent"></path><polygon points="54.482,81.982 48.75,87.715 45.518,84.482 41.982,88.018 48.75,94.785 58.018,85.518 " fill="#000000" data-fill-palette-color="accent"></polygon></svg></g></svg></g></svg></g><defs></defs></svg><rect width="395.5199999999999" height="118.7601499839984" fill="none" stroke="none" visibility="hidden"></rect></g></svg></g></svg>